<mxfile host="app.diagrams.net" modified="2023-02-12T10:20:44.465Z" agent="5.0 (X11; Linux x86_64) AppleWebKit/537.36 (KHTML, like Gecko) Chrome/109.0.0.0 Safari/537.36" etag="_lDIsY1yMMhhNHogeztB" version="20.8.20" type="github">
  <diagram id="C5RBs43oDa-KdzZeNtuy" name="Page-1">
    <mxGraphModel dx="1247" dy="675" grid="1" gridSize="10" guides="1" tooltips="1" connect="1" arrows="1" fold="1" page="1" pageScale="1" pageWidth="827" pageHeight="1169" math="0" shadow="0">
      <root>
        <mxCell id="WIyWlLk6GJQsqaUBKTNV-0" />
        <mxCell id="WIyWlLk6GJQsqaUBKTNV-1" parent="WIyWlLk6GJQsqaUBKTNV-0" />
        <mxCell id="yCsXKS_u6SXz4siND-1q-2" value="" style="edgeStyle=orthogonalEdgeStyle;rounded=0;orthogonalLoop=1;jettySize=auto;html=1;" edge="1" parent="WIyWlLk6GJQsqaUBKTNV-1" source="yCsXKS_u6SXz4siND-1q-0" target="yCsXKS_u6SXz4siND-1q-1">
          <mxGeometry relative="1" as="geometry" />
        </mxCell>
        <mxCell id="yCsXKS_u6SXz4siND-1q-0" value="start" style="ellipse;whiteSpace=wrap;html=1;" vertex="1" parent="WIyWlLk6GJQsqaUBKTNV-1">
          <mxGeometry x="340" y="10" width="120" height="80" as="geometry" />
        </mxCell>
        <mxCell id="yCsXKS_u6SXz4siND-1q-6" value="" style="edgeStyle=orthogonalEdgeStyle;rounded=0;orthogonalLoop=1;jettySize=auto;html=1;" edge="1" parent="WIyWlLk6GJQsqaUBKTNV-1" source="yCsXKS_u6SXz4siND-1q-1" target="yCsXKS_u6SXz4siND-1q-5">
          <mxGeometry relative="1" as="geometry" />
        </mxCell>
        <mxCell id="yCsXKS_u6SXz4siND-1q-1" value="int a [ ] = {11, 22, 33, 44, 55, 66, 77, 88, 99, 111 };" style="whiteSpace=wrap;html=1;" vertex="1" parent="WIyWlLk6GJQsqaUBKTNV-1">
          <mxGeometry x="340" y="150" width="120" height="60" as="geometry" />
        </mxCell>
        <mxCell id="yCsXKS_u6SXz4siND-1q-8" value="" style="edgeStyle=orthogonalEdgeStyle;rounded=0;orthogonalLoop=1;jettySize=auto;html=1;" edge="1" parent="WIyWlLk6GJQsqaUBKTNV-1" source="yCsXKS_u6SXz4siND-1q-5" target="yCsXKS_u6SXz4siND-1q-7">
          <mxGeometry relative="1" as="geometry" />
        </mxCell>
        <mxCell id="yCsXKS_u6SXz4siND-1q-5" value="void_rivers_array(a, 0);" style="whiteSpace=wrap;html=1;" vertex="1" parent="WIyWlLk6GJQsqaUBKTNV-1">
          <mxGeometry x="340" y="290" width="120" height="60" as="geometry" />
        </mxCell>
        <mxCell id="yCsXKS_u6SXz4siND-1q-7" value="end" style="ellipse;whiteSpace=wrap;html=1;" vertex="1" parent="WIyWlLk6GJQsqaUBKTNV-1">
          <mxGeometry x="360" y="420" width="80" height="60" as="geometry" />
        </mxCell>
        <mxCell id="yCsXKS_u6SXz4siND-1q-11" value="" style="edgeStyle=orthogonalEdgeStyle;rounded=0;orthogonalLoop=1;jettySize=auto;html=1;" edge="1" parent="WIyWlLk6GJQsqaUBKTNV-1" source="yCsXKS_u6SXz4siND-1q-9" target="yCsXKS_u6SXz4siND-1q-10">
          <mxGeometry relative="1" as="geometry" />
        </mxCell>
        <mxCell id="yCsXKS_u6SXz4siND-1q-24" style="edgeStyle=orthogonalEdgeStyle;rounded=0;orthogonalLoop=1;jettySize=auto;html=1;entryX=1;entryY=0.75;entryDx=0;entryDy=0;" edge="1" parent="WIyWlLk6GJQsqaUBKTNV-1" source="yCsXKS_u6SXz4siND-1q-9" target="yCsXKS_u6SXz4siND-1q-5">
          <mxGeometry relative="1" as="geometry" />
        </mxCell>
        <mxCell id="yCsXKS_u6SXz4siND-1q-9" value="void_rivers_array(int n [ ], int numbers);" style="rounded=0;whiteSpace=wrap;html=1;" vertex="1" parent="WIyWlLk6GJQsqaUBKTNV-1">
          <mxGeometry x="690" y="10" width="120" height="60" as="geometry" />
        </mxCell>
        <mxCell id="yCsXKS_u6SXz4siND-1q-13" value="" style="edgeStyle=orthogonalEdgeStyle;rounded=0;orthogonalLoop=1;jettySize=auto;html=1;" edge="1" parent="WIyWlLk6GJQsqaUBKTNV-1" source="yCsXKS_u6SXz4siND-1q-10" target="yCsXKS_u6SXz4siND-1q-12">
          <mxGeometry relative="1" as="geometry" />
        </mxCell>
        <mxCell id="yCsXKS_u6SXz4siND-1q-10" value="start&lt;br&gt;" style="ellipse;whiteSpace=wrap;html=1;rounded=0;" vertex="1" parent="WIyWlLk6GJQsqaUBKTNV-1">
          <mxGeometry x="710" y="140" width="80" height="50" as="geometry" />
        </mxCell>
        <mxCell id="yCsXKS_u6SXz4siND-1q-15" value="" style="edgeStyle=orthogonalEdgeStyle;rounded=0;orthogonalLoop=1;jettySize=auto;html=1;" edge="1" parent="WIyWlLk6GJQsqaUBKTNV-1" source="yCsXKS_u6SXz4siND-1q-12" target="yCsXKS_u6SXz4siND-1q-14">
          <mxGeometry relative="1" as="geometry" />
        </mxCell>
        <mxCell id="yCsXKS_u6SXz4siND-1q-12" value="int i;" style="whiteSpace=wrap;html=1;rounded=0;" vertex="1" parent="WIyWlLk6GJQsqaUBKTNV-1">
          <mxGeometry x="690" y="265" width="120" height="60" as="geometry" />
        </mxCell>
        <mxCell id="yCsXKS_u6SXz4siND-1q-19" value="" style="edgeStyle=orthogonalEdgeStyle;rounded=0;orthogonalLoop=1;jettySize=auto;html=1;" edge="1" parent="WIyWlLk6GJQsqaUBKTNV-1" source="yCsXKS_u6SXz4siND-1q-14" target="yCsXKS_u6SXz4siND-1q-18">
          <mxGeometry relative="1" as="geometry" />
        </mxCell>
        <mxCell id="yCsXKS_u6SXz4siND-1q-22" value="" style="edgeStyle=orthogonalEdgeStyle;rounded=0;orthogonalLoop=1;jettySize=auto;html=1;" edge="1" parent="WIyWlLk6GJQsqaUBKTNV-1" source="yCsXKS_u6SXz4siND-1q-14" target="yCsXKS_u6SXz4siND-1q-21">
          <mxGeometry relative="1" as="geometry" />
        </mxCell>
        <mxCell id="yCsXKS_u6SXz4siND-1q-14" value="i &amp;gt;= numbers" style="rhombus;whiteSpace=wrap;html=1;rounded=0;" vertex="1" parent="WIyWlLk6GJQsqaUBKTNV-1">
          <mxGeometry x="710" y="395" width="80" height="80" as="geometry" />
        </mxCell>
        <mxCell id="yCsXKS_u6SXz4siND-1q-18" value="end" style="ellipse;whiteSpace=wrap;html=1;rounded=0;" vertex="1" parent="WIyWlLk6GJQsqaUBKTNV-1">
          <mxGeometry x="710" y="555" width="80" height="45" as="geometry" />
        </mxCell>
        <mxCell id="yCsXKS_u6SXz4siND-1q-20" value="no" style="text;html=1;align=center;verticalAlign=middle;resizable=0;points=[];autosize=1;strokeColor=none;fillColor=none;" vertex="1" parent="WIyWlLk6GJQsqaUBKTNV-1">
          <mxGeometry x="740" y="485" width="40" height="30" as="geometry" />
        </mxCell>
        <mxCell id="yCsXKS_u6SXz4siND-1q-21" value="rivers_array( a, 0)" style="shape=parallelogram;perimeter=parallelogramPerimeter;whiteSpace=wrap;html=1;fixedSize=1;rounded=0;" vertex="1" parent="WIyWlLk6GJQsqaUBKTNV-1">
          <mxGeometry x="520" y="475" width="120" height="60" as="geometry" />
        </mxCell>
        <mxCell id="yCsXKS_u6SXz4siND-1q-23" value="yes" style="text;html=1;align=center;verticalAlign=middle;resizable=0;points=[];autosize=1;strokeColor=none;fillColor=none;" vertex="1" parent="WIyWlLk6GJQsqaUBKTNV-1">
          <mxGeometry x="670" y="405" width="40" height="30" as="geometry" />
        </mxCell>
      </root>
    </mxGraphModel>
  </diagram>
</mxfile>
